<?xml version="1.0" encoding="UTF-8"?>
<svg id="Ebene_1" xmlns="http://www.w3.org/2000/svg" version="1.1" viewBox="0 0 377.28 385.2">
  <!-- Generator: Adobe Illustrator 30.1.0, SVG Export Plug-In . SVG Version: 2.1.1 Build 136)  -->
  <defs>
    <style>
      .st0 {
        fill: #8579b7;
      }

      .st1 {
        fill: #d5b8fb;
      }

      .st2 {
        fill: #fff;
      }
    </style>
  </defs>
  <g>
    <path class="st2" d="M154.97,250.18c-1.29-.77-2.6-1.22-4.14-.74-1.17.37-2.5.88-3.46,1.84l-45.66,45.62c-2.7,2.7-2.43,6.78.56,9.07,5.34,4.11,10.93,7.72,16.85,10.97,21.56,11.82,45.75,17.58,70.37,17.19,25.56-.41,64.08-11.17,81.77-27.11l3.07-2.77c16.11-14.52,30.99-30.44,40.56-50.02,9.59-19.63,14.39-41.22,14.2-63.03-.33-37.43-15.54-73.06-42.08-99.26-25.86-25.54-60.6-40.24-97.09-40.82-22.2-.35-44.18,4.44-64.16,14.2-25.65,12.54-46.99,32.48-61.23,57.24-28.17,48.98-24.22,110.61,10.04,155.47,1.98,2.59,6.11,2.69,8.41.39l46.01-46.02c1.76-1.76,1.73-4.78.65-6.66-15.04-26.13-10.42-58.72,10.4-79.82,24.99-25.33,65.39-26.69,91.96-2.86,19.75,17.7,27.34,45.83,18.46,71.28-5.99,17.16-18.8,31.27-35.44,38.89-14.65,6.7-31.42,7.83-46.82,3.14-4.78-1.46-9.02-3.66-13.23-6.2ZM184.04,233.85c24.81,2.02,45.48-17.93,44.81-42.34-.68-24.45-22.31-43.11-46.86-39.88-20.96,2.76-36.43,20.96-35.91,42.04s16.76,38.46,37.97,40.18Z"/>
    <path class="st1" d="M154.97,250.18c4.22,2.54,8.45,4.74,13.23,6.2,15.41,4.69,32.17,3.56,46.82-3.14,16.64-7.61,29.45-21.73,35.44-38.89,8.88-25.45,1.29-53.58-18.46-71.28-26.57-23.82-66.97-22.47-91.96,2.86-20.82,21.1-25.44,53.69-10.4,79.82,1.09,1.89,1.12,4.9-.65,6.66l-46.01,46.02c-2.3,2.3-6.43,2.2-8.41-.39-34.26-44.86-38.21-106.49-10.04-155.47,14.24-24.76,35.57-44.7,61.23-57.24,19.97-9.76,41.96-14.55,64.16-14.2,36.49.58,71.22,15.28,97.09,40.82,26.54,26.2,41.75,61.83,42.08,99.26.19,21.81-4.61,43.4-14.2,63.03-9.57,19.59-24.45,35.51-40.56,50.02l-3.07,2.77c-17.69,15.95-56.21,26.7-81.77,27.11-24.62.39-48.81-5.37-70.37-17.19-5.93-3.25-11.51-6.87-16.85-10.97-2.98-2.29-3.26-6.38-.56-9.07l45.66-45.62c.96-.96,2.29-1.47,3.46-1.84,1.54-.49,2.86-.04,4.14.74Z"/>
    <path class="st0" d="M184.04,233.85c-21.21-1.72-37.46-19.28-37.97-40.18s14.96-39.28,35.91-42.04c24.55-3.23,46.19,15.43,46.86,39.88.67,24.41-19.99,44.36-44.81,42.34Z"/>
  </g>
  <path class="st0" d="M273.19,305.27c-4.48,4.26-8.39,7.17-14.63,10.5-22.37,11.96-46.13,17.49-67.18,18.39s-46.16-3.83-69.16-15.63c-7.07-3.63-13.69-7.79-19.96-12.63-2.9-2.24-3.28-6.23-.65-8.86l46.12-46.09c1.81-1.13,4.06-2.41,6.04-1.31,4.72,2.63,9.25,5.2,14.47,6.79,17.6,5.37,37.66,2.95,53.37-6.69,2.1-.26,3.93-.31,5.57,1.33l46.55,46.59c2.08,2.08,1.61,5.57-.53,7.61Z"/>
</svg>